<svg width="22" height="20" viewBox="0 0 22 20" fill="none" xmlns="http://www.w3.org/2000/svg">
<path d="M2 1L20 19" stroke="#64748B" stroke-width="1.5" stroke-linecap="round" stroke-linejoin="round"/>
<path d="M9.58402 8.587C9.20874 8.96201 8.99781 9.47075 8.99762 10.0013C8.99743 10.5318 9.20801 11.0407 9.58303 11.416C9.95804 11.7913 10.4668 12.0022 10.9973 12.0024C11.5279 12.0026 12.0367 11.792 12.412 11.417" stroke="#64748B" stroke-width="1.5" stroke-linecap="round" stroke-linejoin="round"/>
<path d="M8.363 3.365C9.22042 3.11972 10.1082 2.99684 11 3C15 3 18.333 5.333 21 10C20.222 11.361 19.388 12.524 18.497 13.488M16.357 15.349C14.726 16.449 12.942 17 11 17C7 17 3.667 14.667 1 10C2.369 7.605 3.913 5.825 5.632 4.659" stroke="#64748B" stroke-width="1.5" stroke-linecap="round" stroke-linejoin="round"/>
</svg>
